<?xml version="1.0" encoding="utf-8"?>
<svg xmlns="http://www.w3.org/2000/svg" viewBox="11.253 8.5319 479.971 480.0141" width="479.971px" height="480.014px" preserveAspectRatio="none"><path style="fill: rgb(255, 246, 235);" d="M 350.084 181.303 C 287.598 345.459 429.493 488.546 429.493 488.546 L 11.253 488.546 C 11.253 416.864 74.363 254.892 74.363 254.892 C 74.363 254.892 67.378 250.687 38.802 252.422 C 92.34 188.097 92.275 154.656 130.175 104.743 C 188.151 28.394 236.364 24.733 257.108 25.226 C 277.852 25.72 297.902 31.518 312.576 32.455 C 340.354 24.852 361.184 10.095 414.729 8.565 C 468.274 7.035 491.224 59.053 491.224 59.053 C 420.793 91.719 374.51 109.567 350.084 181.303 Z" id="object-0" transform="matrix(1, 0, 0, 1, 0, 2.842170943040401e-14)"/></svg>